<svg xmlns="http://www.w3.org/2000/svg" width="1200" height="340" viewBox="0 0 1200 340" font-family="Segoe UI, Helvetica, Arial, sans-serif">
  <rect width="1200" height="340" fill="#fcfcfb"/>
  <text x="70" y="24" font-size="16" font-weight="700" fill="#0b0b0b">infra-a (single-AZ): the availability zone fails, and nothing brings it back</text>
  <text x="70" y="42" font-size="12" fill="#52514e">578 requests, one per second, from outside the cluster &#183; each band is one request</text>

  <rect x="70.00" y="56" width="2.50" height="222" fill="#1baf7a" /><rect x="70.69" y="56" width="2.50" height="222" fill="#1baf7a" /><rect x="71.38" y="56" width="2.50" height="222" fill="#1baf7a" /><rect x="72.07" y="56" width="2.50" height="222" fill="#1baf7a" /><rect x="72.76" y="56" width="2.50" height="222" fill="#1baf7a" /><rect x="73.45" y="56" width="2.50" height="222" fill="#1baf7a" /><rect x="74.14" y="56" width="2.50" height="222" fill="#1baf7a" /><rect x="74.83" y="56" width="2.50" height="222" fill="#1baf7a" /><rect x="75.52" y="56" width="2.50" height="222" fill="#1baf7a" /><rect x="76.21" y="56" width="2.50" height="222" fill="#1baf7a" /><rect x="76.90" y="56" width="2.50" height="222" fill="#1baf7a" /><rect x="77.58" y="56" width="2.50" height="222" fill="#1baf7a" /><rect x="78.27" y="56" width="2.50" height="222" fill="#1baf7a" /><rect x="78.96" y="56" width="2.50" height="222" fill="#1baf7a" /><rect x="79.65" y="56" width="2.50" height="222" fill="#1baf7a" /><rect x="80.34" y="56" width="2.50" height="222" fill="#1baf7a" /><rect x="81.03" y="56" width="2.50" height="222" fill="#1baf7a" /><rect x="81.72" y="56" width="2.50" height="222" fill="#1baf7a" /><rect x="82.41" y="56" width="2.50" height="222" fill="#1baf7a" /><rect x="83.10" y="56" width="2.50" height="222" fill="#1baf7a" /><rect x="83.79" y="56" width="2.50" height="222" fill="#1baf7a" /><rect x="84.48" y="56" width="2.50" height="222" fill="#1baf7a" /><rect x="85.58" y="56" width="2.50" height="222" fill="#1baf7a" /><rect x="86.27" y="56" width="2.50" height="222" fill="#1baf7a" /><rect x="86.95" y="56" width="2.50" height="222" fill="#1baf7a" /><rect x="87.64" y="56" width="2.50" height="222" fill="#1baf7a" /><rect x="88.33" y="56" width="2.50" height="222" fill="#1baf7a" /><rect x="89.02" y="56" width="2.50" height="222" fill="#1baf7a" /><rect x="89.71" y="56" width="2.50" height="222" fill="#1baf7a" /><rect x="90.40" y="56" width="2.50" height="222" fill="#1baf7a" /><rect x="91.09" y="56" width="2.50" height="222" fill="#1baf7a" /><rect x="91.78" y="56" width="2.50" height="222" fill="#1baf7a" /><rect x="92.47" y="56" width="2.50" height="222" fill="#1baf7a" /><rect x="93.16" y="56" width="2.50" height="222" fill="#1baf7a" /><rect x="93.85" y="56" width="2.50" height="222" fill="#1baf7a" /><rect x="94.54" y="56" width="2.50" height="222" fill="#1baf7a" /><rect x="95.23" y="56" width="2.50" height="222" fill="#1baf7a" /><rect x="95.92" y="56" width="2.50" height="222" fill="#1baf7a" /><rect x="96.61" y="56" width="2.50" height="222" fill="#1baf7a" /><rect x="97.30" y="56" width="2.50" height="222" fill="#1baf7a" /><rect x="97.99" y="56" width="2.50" height="222" fill="#1baf7a" /><rect x="98.68" y="56" width="2.50" height="222" fill="#1baf7a" /><rect x="99.37" y="56" width="2.50" height="222" fill="#1baf7a" /><rect x="100.06" y="56" width="2.50" height="222" fill="#1baf7a" /><rect x="100.75" y="56" width="2.50" height="222" fill="#1baf7a" /><rect x="101.44" y="56" width="2.50" height="222" fill="#1baf7a" /><rect x="102.12" y="56" width="2.50" height="222" fill="#1baf7a" /><rect x="102.81" y="56" width="2.50" height="222" fill="#1baf7a" /><rect x="103.50" y="56" width="2.50" height="222" fill="#1baf7a" /><rect x="104.19" y="56" width="2.50" height="222" fill="#1baf7a" /><rect x="104.88" y="56" width="2.50" height="222" fill="#1baf7a" /><rect x="105.57" y="56" width="2.50" height="222" fill="#1baf7a" /><rect x="106.26" y="56" width="2.50" height="222" fill="#1baf7a" /><rect x="106.95" y="56" width="2.50" height="222" fill="#1baf7a" /><rect x="107.98" y="56" width="2.50" height="222" fill="#1baf7a" /><rect x="108.67" y="56" width="2.50" height="222" fill="#1baf7a" /><rect x="109.36" y="56" width="2.50" height="222" fill="#1baf7a" /><rect x="110.05" y="56" width="2.50" height="222" fill="#1baf7a" /><rect x="110.74" y="56" width="2.50" height="222" fill="#1baf7a" /><rect x="111.43" y="56" width="2.50" height="222" fill="#1baf7a" /><rect x="112.12" y="56" width="2.50" height="222" fill="#1baf7a" /><rect x="112.81" y="56" width="2.50" height="222" fill="#1baf7a" /><rect x="113.50" y="56" width="2.50" height="222" fill="#1baf7a" /><rect x="114.19" y="56" width="2.50" height="222" fill="#1baf7a" /><rect x="114.88" y="56" width="2.50" height="222" fill="#1baf7a" /><rect x="115.57" y="56" width="2.50" height="222" fill="#1baf7a" /><rect x="116.26" y="56" width="2.50" height="222" fill="#1baf7a" /><rect x="116.95" y="56" width="2.50" height="222" fill="#1baf7a" /><rect x="117.64" y="56" width="2.50" height="222" fill="#1baf7a" /><rect x="118.33" y="56" width="2.50" height="222" fill="#1baf7a" /><rect x="119.02" y="56" width="2.50" height="222" fill="#1baf7a" /><rect x="119.73" y="56" width="2.50" height="222" fill="#1baf7a" /><rect x="120.42" y="56" width="2.50" height="222" fill="#1baf7a" /><rect x="121.11" y="56" width="2.50" height="222" fill="#1baf7a" /><rect x="121.80" y="56" width="2.50" height="222" fill="#1baf7a" /><rect x="122.49" y="56" width="2.50" height="222" fill="#1baf7a" /><rect x="123.18" y="56" width="2.50" height="222" fill="#e34948" /><rect x="125.26" y="56" width="2.50" height="222" fill="#e34948" /><rect x="127.34" y="56" width="2.50" height="222" fill="#e34948" /><rect x="129.42" y="56" width="2.50" height="222" fill="#e34948" /><rect x="131.88" y="56" width="2.50" height="222" fill="#e34948" /><rect x="133.96" y="56" width="2.50" height="222" fill="#e34948" /><rect x="136.04" y="56" width="2.50" height="222" fill="#e34948" /><rect x="138.12" y="56" width="2.50" height="222" fill="#e34948" /><rect x="140.20" y="56" width="2.50" height="222" fill="#e34948" /><rect x="142.28" y="56" width="2.50" height="222" fill="#e34948" /><rect x="144.36" y="56" width="2.50" height="222" fill="#e34948" /><rect x="146.44" y="56" width="2.50" height="222" fill="#e34948" /><rect x="148.53" y="56" width="2.50" height="222" fill="#e34948" /><rect x="150.61" y="56" width="2.50" height="222" fill="#e34948" /><rect x="153.08" y="56" width="2.50" height="222" fill="#e34948" /><rect x="155.17" y="56" width="2.50" height="222" fill="#e34948" /><rect x="157.25" y="56" width="2.50" height="222" fill="#e34948" /><rect x="159.33" y="56" width="2.50" height="222" fill="#e34948" /><rect x="161.41" y="56" width="2.50" height="222" fill="#e34948" /><rect x="163.49" y="56" width="2.50" height="222" fill="#e34948" /><rect x="165.57" y="56" width="2.50" height="222" fill="#e34948" /><rect x="167.66" y="56" width="2.50" height="222" fill="#e34948" /><rect x="169.74" y="56" width="2.50" height="222" fill="#e34948" /><rect x="171.82" y="56" width="2.50" height="222" fill="#e34948" /><rect x="173.90" y="56" width="2.50" height="222" fill="#e34948" /><rect x="176.31" y="56" width="2.50" height="222" fill="#e34948" /><rect x="178.39" y="56" width="2.50" height="222" fill="#e34948" /><rect x="180.47" y="56" width="2.50" height="222" fill="#e34948" /><rect x="182.55" y="56" width="2.50" height="222" fill="#e34948" /><rect x="184.63" y="56" width="2.50" height="222" fill="#e34948" /><rect x="186.71" y="56" width="2.50" height="222" fill="#e34948" /><rect x="188.79" y="56" width="2.50" height="222" fill="#e34948" /><rect x="190.87" y="56" width="2.50" height="222" fill="#e34948" /><rect x="192.95" y="56" width="2.50" height="222" fill="#e34948" /><rect x="195.04" y="56" width="2.50" height="222" fill="#e34948" /><rect x="197.13" y="56" width="2.50" height="222" fill="#e34948" /><rect x="199.55" y="56" width="2.50" height="222" fill="#e34948" /><rect x="201.63" y="56" width="2.50" height="222" fill="#e34948" /><rect x="203.71" y="56" width="2.50" height="222" fill="#e34948" /><rect x="205.79" y="56" width="2.50" height="222" fill="#e34948" /><rect x="207.87" y="56" width="2.50" height="222" fill="#e34948" /><rect x="209.95" y="56" width="2.50" height="222" fill="#e34948" /><rect x="212.03" y="56" width="2.50" height="222" fill="#e34948" /><rect x="214.11" y="56" width="2.50" height="222" fill="#e34948" /><rect x="216.19" y="56" width="2.50" height="222" fill="#e34948" /><rect x="218.27" y="56" width="2.50" height="222" fill="#e34948" /><rect x="220.70" y="56" width="2.50" height="222" fill="#e34948" /><rect x="222.78" y="56" width="2.50" height="222" fill="#e34948" /><rect x="224.86" y="56" width="2.50" height="222" fill="#e34948" /><rect x="226.95" y="56" width="2.50" height="222" fill="#e34948" /><rect x="229.03" y="56" width="2.50" height="222" fill="#e34948" /><rect x="231.11" y="56" width="2.50" height="222" fill="#e34948" /><rect x="233.18" y="56" width="2.50" height="222" fill="#e34948" /><rect x="235.26" y="56" width="2.50" height="222" fill="#e34948" /><rect x="237.35" y="56" width="2.50" height="222" fill="#e34948" /><rect x="239.44" y="56" width="2.50" height="222" fill="#e34948" /><rect x="241.52" y="56" width="2.50" height="222" fill="#e34948" /><rect x="243.90" y="56" width="2.50" height="222" fill="#e34948" /><rect x="245.98" y="56" width="2.50" height="222" fill="#e34948" /><rect x="248.06" y="56" width="2.50" height="222" fill="#e34948" /><rect x="250.15" y="56" width="2.50" height="222" fill="#e34948" /><rect x="252.22" y="56" width="2.50" height="222" fill="#e34948" /><rect x="254.31" y="56" width="2.50" height="222" fill="#e34948" /><rect x="256.39" y="56" width="2.50" height="222" fill="#e34948" /><rect x="258.47" y="56" width="2.50" height="222" fill="#e34948" /><rect x="260.55" y="56" width="2.50" height="222" fill="#e34948" /><rect x="262.63" y="56" width="2.50" height="222" fill="#e34948" /><rect x="264.71" y="56" width="2.50" height="222" fill="#e34948" /><rect x="267.08" y="56" width="2.50" height="222" fill="#e34948" /><rect x="269.17" y="56" width="2.50" height="222" fill="#e34948" /><rect x="271.25" y="56" width="2.50" height="222" fill="#e34948" /><rect x="273.33" y="56" width="2.50" height="222" fill="#e34948" /><rect x="275.41" y="56" width="2.50" height="222" fill="#e34948" /><rect x="277.49" y="56" width="2.50" height="222" fill="#e34948" /><rect x="279.57" y="56" width="2.50" height="222" fill="#e34948" /><rect x="281.66" y="56" width="2.50" height="222" fill="#e34948" /><rect x="283.74" y="56" width="2.50" height="222" fill="#e34948" /><rect x="285.82" y="56" width="2.50" height="222" fill="#e34948" /><rect x="288.19" y="56" width="2.50" height="222" fill="#e34948" /><rect x="290.27" y="56" width="2.50" height="222" fill="#e34948" /><rect x="292.35" y="56" width="2.50" height="222" fill="#e34948" /><rect x="294.43" y="56" width="2.50" height="222" fill="#e34948" /><rect x="296.51" y="56" width="2.50" height="222" fill="#e34948" /><rect x="298.59" y="56" width="2.50" height="222" fill="#e34948" /><rect x="300.68" y="56" width="2.50" height="222" fill="#e34948" /><rect x="302.76" y="56" width="2.50" height="222" fill="#e34948" /><rect x="304.84" y="56" width="2.50" height="222" fill="#e34948" /><rect x="306.92" y="56" width="2.50" height="222" fill="#e34948" /><rect x="309.00" y="56" width="2.50" height="222" fill="#e34948" /><rect x="311.39" y="56" width="2.50" height="222" fill="#e34948" /><rect x="313.47" y="56" width="2.50" height="222" fill="#e34948" /><rect x="315.55" y="56" width="2.50" height="222" fill="#e34948" /><rect x="317.63" y="56" width="2.50" height="222" fill="#e34948" /><rect x="319.71" y="56" width="2.50" height="222" fill="#e34948" /><rect x="321.80" y="56" width="2.50" height="222" fill="#e34948" /><rect x="323.89" y="56" width="2.50" height="222" fill="#e34948" /><rect x="325.97" y="56" width="2.50" height="222" fill="#e34948" /><rect x="328.05" y="56" width="2.50" height="222" fill="#e34948" /><rect x="330.13" y="56" width="2.50" height="222" fill="#e34948" /><rect x="332.21" y="56" width="2.50" height="222" fill="#e34948" /><rect x="334.58" y="56" width="2.50" height="222" fill="#e34948" /><rect x="336.66" y="56" width="2.50" height="222" fill="#e34948" /><rect x="338.74" y="56" width="2.50" height="222" fill="#e34948" /><rect x="340.82" y="56" width="2.50" height="222" fill="#e34948" /><rect x="342.90" y="56" width="2.50" height="222" fill="#e34948" /><rect x="344.98" y="56" width="2.50" height="222" fill="#e34948" /><rect x="347.06" y="56" width="2.50" height="222" fill="#e34948" /><rect x="349.14" y="56" width="2.50" height="222" fill="#e34948" /><rect x="351.22" y="56" width="2.50" height="222" fill="#e34948" /><rect x="353.31" y="56" width="2.50" height="222" fill="#e34948" /><rect x="355.39" y="56" width="2.50" height="222" fill="#e34948" /><rect x="357.75" y="56" width="2.50" height="222" fill="#e34948" /><rect x="359.83" y="56" width="2.50" height="222" fill="#e34948" /><rect x="361.91" y="56" width="2.50" height="222" fill="#e34948" /><rect x="363.99" y="56" width="2.50" height="222" fill="#e34948" /><rect x="366.08" y="56" width="2.50" height="222" fill="#e34948" /><rect x="368.16" y="56" width="2.50" height="222" fill="#e34948" /><rect x="370.24" y="56" width="2.50" height="222" fill="#e34948" /><rect x="372.32" y="56" width="2.50" height="222" fill="#e34948" /><rect x="374.41" y="56" width="2.50" height="222" fill="#e34948" /><rect x="376.49" y="56" width="2.50" height="222" fill="#e34948" /><rect x="378.85" y="56" width="2.50" height="222" fill="#e34948" /><rect x="380.93" y="56" width="2.50" height="222" fill="#e34948" /><rect x="383.01" y="56" width="2.50" height="222" fill="#e34948" /><rect x="385.09" y="56" width="2.50" height="222" fill="#e34948" /><rect x="387.17" y="56" width="2.50" height="222" fill="#e34948" /><rect x="389.25" y="56" width="2.50" height="222" fill="#e34948" /><rect x="391.33" y="56" width="2.50" height="222" fill="#e34948" /><rect x="393.41" y="56" width="2.50" height="222" fill="#e34948" /><rect x="395.50" y="56" width="2.50" height="222" fill="#e34948" /><rect x="397.58" y="56" width="2.50" height="222" fill="#e34948" /><rect x="399.66" y="56" width="2.50" height="222" fill="#e34948" /><rect x="401.75" y="56" width="2.50" height="222" fill="#e34948" /><rect x="403.83" y="56" width="2.50" height="222" fill="#e34948" /><rect x="405.92" y="56" width="2.50" height="222" fill="#e34948" /><rect x="408.01" y="56" width="2.50" height="222" fill="#e34948" /><rect x="410.09" y="56" width="2.50" height="222" fill="#e34948" /><rect x="412.17" y="56" width="2.50" height="222" fill="#e34948" /><rect x="414.25" y="56" width="2.50" height="222" fill="#e34948" /><rect x="416.33" y="56" width="2.50" height="222" fill="#e34948" /><rect x="418.41" y="56" width="2.50" height="222" fill="#e34948" /><rect x="420.49" y="56" width="2.50" height="222" fill="#e34948" /><rect x="422.57" y="56" width="2.50" height="222" fill="#e34948" /><rect x="424.65" y="56" width="2.50" height="222" fill="#e34948" /><rect x="426.74" y="56" width="2.50" height="222" fill="#e34948" /><rect x="428.82" y="56" width="2.50" height="222" fill="#e34948" /><rect x="430.91" y="56" width="2.50" height="222" fill="#e34948" /><rect x="432.99" y="56" width="2.50" height="222" fill="#e34948" /><rect x="435.07" y="56" width="2.50" height="222" fill="#e34948" /><rect x="437.15" y="56" width="2.50" height="222" fill="#e34948" /><rect x="439.24" y="56" width="2.50" height="222" fill="#e34948" /><rect x="441.32" y="56" width="2.50" height="222" fill="#e34948" /><rect x="443.40" y="56" width="2.50" height="222" fill="#e34948" /><rect x="445.48" y="56" width="2.50" height="222" fill="#e34948" /><rect x="447.56" y="56" width="2.50" height="222" fill="#e34948" /><rect x="449.65" y="56" width="2.50" height="222" fill="#e34948" /><rect x="451.73" y="56" width="2.50" height="222" fill="#e34948" /><rect x="453.81" y="56" width="2.50" height="222" fill="#e34948" /><rect x="455.89" y="56" width="2.50" height="222" fill="#e34948" /><rect x="457.97" y="56" width="2.50" height="222" fill="#e34948" /><rect x="460.05" y="56" width="2.50" height="222" fill="#e34948" /><rect x="462.14" y="56" width="2.50" height="222" fill="#e34948" /><rect x="464.21" y="56" width="2.50" height="222" fill="#e34948" /><rect x="466.29" y="56" width="2.50" height="222" fill="#e34948" /><rect x="468.38" y="56" width="2.50" height="222" fill="#e34948" /><rect x="470.46" y="56" width="2.50" height="222" fill="#e34948" /><rect x="472.54" y="56" width="2.50" height="222" fill="#e34948" /><rect x="474.62" y="56" width="2.50" height="222" fill="#e34948" /><rect x="476.70" y="56" width="2.50" height="222" fill="#e34948" /><rect x="478.78" y="56" width="2.50" height="222" fill="#e34948" /><rect x="480.87" y="56" width="2.50" height="222" fill="#e34948" /><rect x="482.95" y="56" width="2.50" height="222" fill="#e34948" /><rect x="485.06" y="56" width="2.50" height="222" fill="#e34948" /><rect x="487.14" y="56" width="2.50" height="222" fill="#e34948" /><rect x="489.22" y="56" width="2.50" height="222" fill="#e34948" /><rect x="491.31" y="56" width="2.50" height="222" fill="#e34948" /><rect x="493.39" y="56" width="2.50" height="222" fill="#e34948" /><rect x="495.47" y="56" width="2.50" height="222" fill="#e34948" /><rect x="497.55" y="56" width="2.50" height="222" fill="#e34948" /><rect x="499.63" y="56" width="2.50" height="222" fill="#e34948" /><rect x="501.71" y="56" width="2.50" height="222" fill="#e34948" /><rect x="503.79" y="56" width="2.50" height="222" fill="#e34948" /><rect x="505.87" y="56" width="2.50" height="222" fill="#e34948" /><rect x="507.95" y="56" width="2.50" height="222" fill="#e34948" /><rect x="510.03" y="56" width="2.50" height="222" fill="#e34948" /><rect x="512.11" y="56" width="2.50" height="222" fill="#e34948" /><rect x="514.19" y="56" width="2.50" height="222" fill="#e34948" /><rect x="516.27" y="56" width="2.50" height="222" fill="#e34948" /><rect x="518.36" y="56" width="2.50" height="222" fill="#e34948" /><rect x="520.44" y="56" width="2.50" height="222" fill="#e34948" /><rect x="522.52" y="56" width="2.50" height="222" fill="#e34948" /><rect x="524.60" y="56" width="2.50" height="222" fill="#e34948" /><rect x="526.69" y="56" width="2.50" height="222" fill="#e34948" /><rect x="528.77" y="56" width="2.50" height="222" fill="#e34948" /><rect x="530.85" y="56" width="2.50" height="222" fill="#e34948" /><rect x="532.94" y="56" width="2.50" height="222" fill="#e34948" /><rect x="535.02" y="56" width="2.50" height="222" fill="#e34948" /><rect x="537.11" y="56" width="2.50" height="222" fill="#e34948" /><rect x="539.19" y="56" width="2.50" height="222" fill="#e34948" /><rect x="541.27" y="56" width="2.50" height="222" fill="#e34948" /><rect x="543.35" y="56" width="2.50" height="222" fill="#e34948" /><rect x="545.44" y="56" width="2.50" height="222" fill="#e34948" /><rect x="547.52" y="56" width="2.50" height="222" fill="#e34948" /><rect x="549.60" y="56" width="2.50" height="222" fill="#e34948" /><rect x="551.68" y="56" width="2.50" height="222" fill="#e34948" /><rect x="553.75" y="56" width="2.50" height="222" fill="#e34948" /><rect x="555.83" y="56" width="2.50" height="222" fill="#e34948" /><rect x="557.92" y="56" width="2.50" height="222" fill="#e34948" /><rect x="560.00" y="56" width="2.50" height="222" fill="#e34948" /><rect x="562.08" y="56" width="2.50" height="222" fill="#e34948" /><rect x="564.16" y="56" width="2.50" height="222" fill="#e34948" /><rect x="566.24" y="56" width="2.50" height="222" fill="#e34948" /><rect x="568.32" y="56" width="2.50" height="222" fill="#e34948" /><rect x="570.41" y="56" width="2.50" height="222" fill="#e34948" /><rect x="572.49" y="56" width="2.50" height="222" fill="#e34948" /><rect x="574.58" y="56" width="2.50" height="222" fill="#e34948" /><rect x="576.66" y="56" width="2.50" height="222" fill="#e34948" /><rect x="578.74" y="56" width="2.50" height="222" fill="#e34948" /><rect x="580.82" y="56" width="2.50" height="222" fill="#e34948" /><rect x="582.90" y="56" width="2.50" height="222" fill="#e34948" /><rect x="584.98" y="56" width="2.50" height="222" fill="#e34948" /><rect x="587.06" y="56" width="2.50" height="222" fill="#e34948" /><rect x="589.14" y="56" width="2.50" height="222" fill="#e34948" /><rect x="591.22" y="56" width="2.50" height="222" fill="#e34948" /><rect x="593.30" y="56" width="2.50" height="222" fill="#e34948" /><rect x="595.38" y="56" width="2.50" height="222" fill="#e34948" /><rect x="597.46" y="56" width="2.50" height="222" fill="#e34948" /><rect x="599.54" y="56" width="2.50" height="222" fill="#e34948" /><rect x="601.63" y="56" width="2.50" height="222" fill="#e34948" /><rect x="603.71" y="56" width="2.50" height="222" fill="#e34948" /><rect x="605.79" y="56" width="2.50" height="222" fill="#e34948" /><rect x="607.87" y="56" width="2.50" height="222" fill="#e34948" /><rect x="609.95" y="56" width="2.50" height="222" fill="#e34948" /><rect x="612.04" y="56" width="2.50" height="222" fill="#e34948" /><rect x="614.12" y="56" width="2.50" height="222" fill="#e34948" /><rect x="616.21" y="56" width="2.50" height="222" fill="#e34948" /><rect x="618.29" y="56" width="2.50" height="222" fill="#e34948" /><rect x="620.37" y="56" width="2.50" height="222" fill="#e34948" /><rect x="622.45" y="56" width="2.50" height="222" fill="#e34948" /><rect x="624.53" y="56" width="2.50" height="222" fill="#e34948" /><rect x="626.61" y="56" width="2.50" height="222" fill="#e34948" /><rect x="628.70" y="56" width="2.50" height="222" fill="#e34948" /><rect x="630.78" y="56" width="2.50" height="222" fill="#e34948" /><rect x="632.86" y="56" width="2.50" height="222" fill="#e34948" /><rect x="634.94" y="56" width="2.50" height="222" fill="#e34948" /><rect x="637.02" y="56" width="2.50" height="222" fill="#e34948" /><rect x="639.10" y="56" width="2.50" height="222" fill="#e34948" /><rect x="641.18" y="56" width="2.50" height="222" fill="#e34948" /><rect x="643.26" y="56" width="2.50" height="222" fill="#e34948" /><rect x="645.34" y="56" width="2.50" height="222" fill="#e34948" /><rect x="647.42" y="56" width="2.50" height="222" fill="#e34948" /><rect x="649.50" y="56" width="2.50" height="222" fill="#e34948" /><rect x="651.58" y="56" width="2.50" height="222" fill="#e34948" /><rect x="653.66" y="56" width="2.50" height="222" fill="#e34948" /><rect x="655.74" y="56" width="2.50" height="222" fill="#e34948" /><rect x="657.84" y="56" width="2.50" height="222" fill="#e34948" /><rect x="659.92" y="56" width="2.50" height="222" fill="#e34948" /><rect x="662.00" y="56" width="2.50" height="222" fill="#e34948" /><rect x="664.08" y="56" width="2.50" height="222" fill="#e34948" /><rect x="666.16" y="56" width="2.50" height="222" fill="#e34948" /><rect x="668.24" y="56" width="2.50" height="222" fill="#e34948" /><rect x="670.32" y="56" width="2.50" height="222" fill="#e34948" /><rect x="672.40" y="56" width="2.50" height="222" fill="#e34948" /><rect x="674.49" y="56" width="2.50" height="222" fill="#e34948" /><rect x="676.57" y="56" width="2.50" height="222" fill="#e34948" /><rect x="678.65" y="56" width="2.50" height="222" fill="#e34948" /><rect x="680.73" y="56" width="2.50" height="222" fill="#e34948" /><rect x="682.81" y="56" width="2.50" height="222" fill="#e34948" /><rect x="684.89" y="56" width="2.50" height="222" fill="#e34948" /><rect x="686.97" y="56" width="2.50" height="222" fill="#e34948" /><rect x="689.05" y="56" width="2.50" height="222" fill="#e34948" /><rect x="691.13" y="56" width="2.50" height="222" fill="#e34948" /><rect x="693.21" y="56" width="2.50" height="222" fill="#e34948" /><rect x="695.29" y="56" width="2.50" height="222" fill="#e34948" /><rect x="697.38" y="56" width="2.50" height="222" fill="#e34948" /><rect x="699.46" y="56" width="2.50" height="222" fill="#e34948" /><rect x="701.54" y="56" width="2.50" height="222" fill="#e34948" /><rect x="703.63" y="56" width="2.50" height="222" fill="#e34948" /><rect x="705.72" y="56" width="2.50" height="222" fill="#e34948" /><rect x="707.79" y="56" width="2.50" height="222" fill="#e34948" /><rect x="709.87" y="56" width="2.50" height="222" fill="#e34948" /><rect x="711.95" y="56" width="2.50" height="222" fill="#e34948" /><rect x="714.03" y="56" width="2.50" height="222" fill="#e34948" /><rect x="716.13" y="56" width="2.50" height="222" fill="#e34948" /><rect x="718.21" y="56" width="2.50" height="222" fill="#e34948" /><rect x="720.29" y="56" width="2.50" height="222" fill="#e34948" /><rect x="722.37" y="56" width="2.50" height="222" fill="#e34948" /><rect x="724.45" y="56" width="2.50" height="222" fill="#e34948" /><rect x="726.53" y="56" width="2.50" height="222" fill="#e34948" /><rect x="728.61" y="56" width="2.50" height="222" fill="#e34948" /><rect x="730.69" y="56" width="2.50" height="222" fill="#e34948" /><rect x="732.77" y="56" width="2.50" height="222" fill="#e34948" /><rect x="734.85" y="56" width="2.50" height="222" fill="#e34948" /><rect x="736.93" y="56" width="2.50" height="222" fill="#e34948" /><rect x="739.01" y="56" width="2.50" height="222" fill="#e34948" /><rect x="741.11" y="56" width="2.50" height="222" fill="#e34948" /><rect x="743.19" y="56" width="2.50" height="222" fill="#e34948" /><rect x="745.27" y="56" width="2.50" height="222" fill="#e34948" /><rect x="747.35" y="56" width="2.50" height="222" fill="#e34948" /><rect x="749.43" y="56" width="2.50" height="222" fill="#e34948" /><rect x="751.51" y="56" width="2.50" height="222" fill="#e34948" /><rect x="753.59" y="56" width="2.50" height="222" fill="#e34948" /><rect x="755.67" y="56" width="2.50" height="222" fill="#e34948" /><rect x="757.76" y="56" width="2.50" height="222" fill="#e34948" /><rect x="759.84" y="56" width="2.50" height="222" fill="#e34948" /><rect x="761.92" y="56" width="2.50" height="222" fill="#e34948" /><rect x="764.00" y="56" width="2.50" height="222" fill="#e34948" /><rect x="766.08" y="56" width="2.50" height="222" fill="#e34948" /><rect x="768.16" y="56" width="2.50" height="222" fill="#e34948" /><rect x="770.24" y="56" width="2.50" height="222" fill="#e34948" /><rect x="772.32" y="56" width="2.50" height="222" fill="#e34948" /><rect x="774.40" y="56" width="2.50" height="222" fill="#e34948" /><rect x="776.48" y="56" width="2.50" height="222" fill="#e34948" /><rect x="778.56" y="56" width="2.50" height="222" fill="#e34948" /><rect x="780.64" y="56" width="2.50" height="222" fill="#e34948" /><rect x="782.73" y="56" width="2.50" height="222" fill="#e34948" /><rect x="784.81" y="56" width="2.50" height="222" fill="#e34948" /><rect x="786.89" y="56" width="2.50" height="222" fill="#e34948" /><rect x="788.97" y="56" width="2.50" height="222" fill="#e34948" /><rect x="791.05" y="56" width="2.50" height="222" fill="#e34948" /><rect x="793.13" y="56" width="2.50" height="222" fill="#e34948" /><rect x="795.21" y="56" width="2.50" height="222" fill="#e34948" /><rect x="797.29" y="56" width="2.50" height="222" fill="#e34948" /><rect x="799.38" y="56" width="2.50" height="222" fill="#e34948" /><rect x="801.46" y="56" width="2.50" height="222" fill="#e34948" /><rect x="803.55" y="56" width="2.50" height="222" fill="#e34948" /><rect x="805.63" y="56" width="2.50" height="222" fill="#e34948" /><rect x="807.71" y="56" width="2.50" height="222" fill="#e34948" /><rect x="809.79" y="56" width="2.50" height="222" fill="#e34948" /><rect x="811.87" y="56" width="2.50" height="222" fill="#e34948" /><rect x="813.95" y="56" width="2.50" height="222" fill="#e34948" /><rect x="816.03" y="56" width="2.50" height="222" fill="#e34948" /><rect x="818.11" y="56" width="2.50" height="222" fill="#e34948" /><rect x="820.19" y="56" width="2.50" height="222" fill="#e34948" /><rect x="822.27" y="56" width="2.50" height="222" fill="#e34948" /><rect x="824.36" y="56" width="2.50" height="222" fill="#e34948" /><rect x="826.44" y="56" width="2.50" height="222" fill="#e34948" /><rect x="828.53" y="56" width="2.50" height="222" fill="#e34948" /><rect x="830.61" y="56" width="2.50" height="222" fill="#e34948" /><rect x="832.69" y="56" width="2.50" height="222" fill="#e34948" /><rect x="834.77" y="56" width="2.50" height="222" fill="#e34948" /><rect x="836.85" y="56" width="2.50" height="222" fill="#e34948" /><rect x="838.93" y="56" width="2.50" height="222" fill="#e34948" /><rect x="841.02" y="56" width="2.50" height="222" fill="#e34948" /><rect x="843.10" y="56" width="2.50" height="222" fill="#e34948" /><rect x="845.18" y="56" width="2.50" height="222" fill="#e34948" /><rect x="847.27" y="56" width="2.50" height="222" fill="#e34948" /><rect x="849.36" y="56" width="2.50" height="222" fill="#e34948" /><rect x="851.44" y="56" width="2.50" height="222" fill="#e34948" /><rect x="853.52" y="56" width="2.50" height="222" fill="#e34948" /><rect x="855.60" y="56" width="2.50" height="222" fill="#e34948" /><rect x="857.68" y="56" width="2.50" height="222" fill="#e34948" /><rect x="859.76" y="56" width="2.50" height="222" fill="#e34948" /><rect x="861.84" y="56" width="2.50" height="222" fill="#e34948" /><rect x="863.92" y="56" width="2.50" height="222" fill="#e34948" /><rect x="866.01" y="56" width="2.50" height="222" fill="#e34948" /><rect x="868.09" y="56" width="2.50" height="222" fill="#e34948" /><rect x="870.20" y="56" width="2.50" height="222" fill="#e34948" /><rect x="872.29" y="56" width="2.50" height="222" fill="#e34948" /><rect x="874.37" y="56" width="2.50" height="222" fill="#e34948" /><rect x="876.45" y="56" width="2.50" height="222" fill="#e34948" /><rect x="878.53" y="56" width="2.50" height="222" fill="#e34948" /><rect x="880.61" y="56" width="2.50" height="222" fill="#e34948" /><rect x="882.70" y="56" width="2.50" height="222" fill="#e34948" /><rect x="884.78" y="56" width="2.50" height="222" fill="#e34948" /><rect x="886.86" y="56" width="2.50" height="222" fill="#e34948" /><rect x="888.94" y="56" width="2.50" height="222" fill="#e34948" /><rect x="891.03" y="56" width="2.50" height="222" fill="#e34948" /><rect x="893.12" y="56" width="2.50" height="222" fill="#e34948" /><rect x="895.20" y="56" width="2.50" height="222" fill="#e34948" /><rect x="897.28" y="56" width="2.50" height="222" fill="#e34948" /><rect x="899.36" y="56" width="2.50" height="222" fill="#e34948" /><rect x="901.44" y="56" width="2.50" height="222" fill="#e34948" /><rect x="903.52" y="56" width="2.50" height="222" fill="#e34948" /><rect x="905.60" y="56" width="2.50" height="222" fill="#e34948" /><rect x="907.69" y="56" width="2.50" height="222" fill="#e34948" /><rect x="909.77" y="56" width="2.50" height="222" fill="#e34948" /><rect x="911.84" y="56" width="2.50" height="222" fill="#e34948" /><rect x="913.93" y="56" width="2.50" height="222" fill="#e34948" /><rect x="916.01" y="56" width="2.50" height="222" fill="#e34948" /><rect x="918.09" y="56" width="2.50" height="222" fill="#e34948" /><rect x="920.17" y="56" width="2.50" height="222" fill="#e34948" /><rect x="922.26" y="56" width="2.50" height="222" fill="#e34948" /><rect x="924.34" y="56" width="2.50" height="222" fill="#e34948" /><rect x="926.42" y="56" width="2.50" height="222" fill="#e34948" /><rect x="928.49" y="56" width="2.50" height="222" fill="#e34948" /><rect x="930.57" y="56" width="2.50" height="222" fill="#e34948" /><rect x="932.65" y="56" width="2.50" height="222" fill="#e34948" /><rect x="934.74" y="56" width="2.50" height="222" fill="#e34948" /><rect x="936.82" y="56" width="2.50" height="222" fill="#e34948" /><rect x="938.90" y="56" width="2.50" height="222" fill="#e34948" /><rect x="940.98" y="56" width="2.50" height="222" fill="#e34948" /><rect x="943.07" y="56" width="2.50" height="222" fill="#e34948" /><rect x="945.14" y="56" width="2.50" height="222" fill="#e34948" /><rect x="947.22" y="56" width="2.50" height="222" fill="#e34948" /><rect x="949.31" y="56" width="2.50" height="222" fill="#e34948" /><rect x="951.39" y="56" width="2.50" height="222" fill="#e34948" /><rect x="953.47" y="56" width="2.50" height="222" fill="#e34948" /><rect x="955.55" y="56" width="2.50" height="222" fill="#e34948" /><rect x="957.64" y="56" width="2.50" height="222" fill="#e34948" /><rect x="959.73" y="56" width="2.50" height="222" fill="#e34948" /><rect x="961.81" y="56" width="2.50" height="222" fill="#e34948" /><rect x="963.89" y="56" width="2.50" height="222" fill="#e34948" /><rect x="965.98" y="56" width="2.50" height="222" fill="#e34948" /><rect x="968.06" y="56" width="2.50" height="222" fill="#e34948" /><rect x="970.14" y="56" width="2.50" height="222" fill="#e34948" /><rect x="972.22" y="56" width="2.50" height="222" fill="#e34948" /><rect x="974.30" y="56" width="2.50" height="222" fill="#e34948" /><rect x="976.38" y="56" width="2.50" height="222" fill="#e34948" /><rect x="978.46" y="56" width="2.50" height="222" fill="#e34948" /><rect x="980.54" y="56" width="2.50" height="222" fill="#e34948" /><rect x="982.62" y="56" width="2.50" height="222" fill="#e34948" /><rect x="984.70" y="56" width="2.50" height="222" fill="#e34948" /><rect x="986.78" y="56" width="2.50" height="222" fill="#e34948" /><rect x="988.87" y="56" width="2.50" height="222" fill="#e34948" /><rect x="990.96" y="56" width="2.50" height="222" fill="#e34948" /><rect x="993.04" y="56" width="2.50" height="222" fill="#e34948" /><rect x="995.12" y="56" width="2.50" height="222" fill="#e34948" /><rect x="997.20" y="56" width="2.50" height="222" fill="#e34948" /><rect x="999.28" y="56" width="2.50" height="222" fill="#e34948" /><rect x="1001.36" y="56" width="2.50" height="222" fill="#e34948" /><rect x="1003.45" y="56" width="2.50" height="222" fill="#e34948" /><rect x="1005.54" y="56" width="2.50" height="222" fill="#e34948" /><rect x="1007.62" y="56" width="2.50" height="222" fill="#e34948" /><rect x="1009.70" y="56" width="2.50" height="222" fill="#e34948" /><rect x="1011.79" y="56" width="2.50" height="222" fill="#e34948" /><rect x="1013.87" y="56" width="2.50" height="222" fill="#e34948" /><rect x="1015.94" y="56" width="2.50" height="222" fill="#e34948" /><rect x="1018.03" y="56" width="2.50" height="222" fill="#e34948" /><rect x="1020.11" y="56" width="2.50" height="222" fill="#e34948" /><rect x="1022.19" y="56" width="2.50" height="222" fill="#e34948" /><rect x="1024.27" y="56" width="2.50" height="222" fill="#e34948" /><rect x="1026.36" y="56" width="2.50" height="222" fill="#e34948" /><rect x="1028.44" y="56" width="2.50" height="222" fill="#e34948" /><rect x="1030.52" y="56" width="2.50" height="222" fill="#e34948" /><rect x="1032.60" y="56" width="2.50" height="222" fill="#e34948" /><rect x="1034.68" y="56" width="2.50" height="222" fill="#e34948" /><rect x="1036.76" y="56" width="2.50" height="222" fill="#e34948" /><rect x="1038.84" y="56" width="2.50" height="222" fill="#e34948" /><rect x="1040.92" y="56" width="2.50" height="222" fill="#e34948" /><rect x="1043.00" y="56" width="2.50" height="222" fill="#e34948" /><rect x="1045.08" y="56" width="2.50" height="222" fill="#e34948" /><rect x="1047.17" y="56" width="2.50" height="222" fill="#e34948" /><rect x="1049.25" y="56" width="2.50" height="222" fill="#e34948" /><rect x="1051.33" y="56" width="2.50" height="222" fill="#e34948" /><rect x="1053.41" y="56" width="2.50" height="222" fill="#e34948" /><rect x="1055.49" y="56" width="2.50" height="222" fill="#e34948" /><rect x="1057.57" y="56" width="2.50" height="222" fill="#e34948" /><rect x="1059.65" y="56" width="2.50" height="222" fill="#e34948" /><rect x="1061.74" y="56" width="2.50" height="222" fill="#e34948" /><rect x="1063.82" y="56" width="2.50" height="222" fill="#e34948" /><rect x="1065.90" y="56" width="2.50" height="222" fill="#e34948" /><rect x="1067.98" y="56" width="2.50" height="222" fill="#e34948" /><rect x="1070.07" y="56" width="2.50" height="222" fill="#e34948" /><rect x="1072.15" y="56" width="2.50" height="222" fill="#e34948" /><rect x="1074.23" y="56" width="2.50" height="222" fill="#e34948" /><rect x="1076.31" y="56" width="2.50" height="222" fill="#e34948" /><rect x="1078.39" y="56" width="2.50" height="222" fill="#e34948" /><rect x="1080.47" y="56" width="2.50" height="222" fill="#e34948" /><rect x="1082.55" y="56" width="2.50" height="222" fill="#e34948" /><rect x="1084.63" y="56" width="2.50" height="222" fill="#e34948" /><rect x="1086.71" y="56" width="2.50" height="222" fill="#e34948" /><rect x="1088.79" y="56" width="2.50" height="222" fill="#e34948" /><rect x="1090.88" y="56" width="2.50" height="222" fill="#e34948" /><rect x="1092.97" y="56" width="2.50" height="222" fill="#e34948" /><rect x="1095.05" y="56" width="2.50" height="222" fill="#e34948" /><rect x="1097.13" y="56" width="2.50" height="222" fill="#e34948" /><rect x="1099.21" y="56" width="2.50" height="222" fill="#e34948" /><rect x="1101.29" y="56" width="2.50" height="222" fill="#e34948" /><rect x="1103.38" y="56" width="2.50" height="222" fill="#e34948" /><rect x="1105.46" y="56" width="2.50" height="222" fill="#e34948" /><rect x="1107.54" y="56" width="2.50" height="222" fill="#e34948" /><rect x="1109.62" y="56" width="2.50" height="222" fill="#e34948" /><rect x="1111.71" y="56" width="2.50" height="222" fill="#e34948" /><rect x="1113.79" y="56" width="2.50" height="222" fill="#e34948" /><rect x="1115.87" y="56" width="2.50" height="222" fill="#e34948" /><rect x="1117.95" y="56" width="2.50" height="222" fill="#e34948" /><rect x="1120.03" y="56" width="2.50" height="222" fill="#e34948" /><rect x="1122.11" y="56" width="2.50" height="222" fill="#e34948" /><rect x="1124.19" y="56" width="2.50" height="222" fill="#e34948" /><rect x="1126.27" y="56" width="2.50" height="222" fill="#e34948" /><rect x="1128.35" y="56" width="2.50" height="222" fill="#e34948" /><rect x="1130.43" y="56" width="2.50" height="222" fill="#e34948" /><rect x="1132.52" y="56" width="2.50" height="222" fill="#e34948" /><rect x="1134.60" y="56" width="2.50" height="222" fill="#e34948" /><rect x="1136.68" y="56" width="2.50" height="222" fill="#e34948" /><rect x="1138.76" y="56" width="2.50" height="222" fill="#e34948" /><rect x="1140.84" y="56" width="2.50" height="222" fill="#e34948" /><rect x="1142.92" y="56" width="2.50" height="222" fill="#e34948" /><rect x="1145.00" y="56" width="2.50" height="222" fill="#e34948" /><rect x="1147.08" y="56" width="2.50" height="222" fill="#e34948" /><rect x="1149.16" y="56" width="2.50" height="222" fill="#e34948" /><rect x="1151.24" y="56" width="2.50" height="222" fill="#e34948" /><rect x="1153.34" y="56" width="2.50" height="222" fill="#e34948" /><rect x="1155.43" y="56" width="2.50" height="222" fill="#e34948" /><rect x="1157.51" y="56" width="2.50" height="222" fill="#e34948" /><rect x="1159.59" y="56" width="2.50" height="222" fill="#e34948" /><rect x="1161.67" y="56" width="2.50" height="222" fill="#e34948" /><rect x="1163.76" y="56" width="2.50" height="222" fill="#e34948" /><rect x="1165.84" y="56" width="2.50" height="222" fill="#e34948" /><rect x="1167.92" y="56" width="2.50" height="222" fill="#e34948" /><rect x="1170.00" y="56" width="2.50" height="222" fill="#e34948" /><rect x="113.1" y="56" width="620.5" height="222" fill="none" stroke="#0b0b0b" stroke-width="1.5" stroke-dasharray="6 4" /><text x="423.3" y="46" text-anchor="middle" font-size="12" font-weight="600" fill="#0b0b0b">AWS FIS: AZ isolated (15 min)</text><line x1="70.0" y1="278" x2="70.0" y2="283" stroke="#d9d8d3" /><text x="70.0" y="298" text-anchor="middle" font-size="11" fill="#52514e">0m</text><line x1="152.7" y1="278" x2="152.7" y2="283" stroke="#d9d8d3" /><text x="152.7" y="298" text-anchor="middle" font-size="11" fill="#52514e">2m</text><line x1="235.5" y1="278" x2="235.5" y2="283" stroke="#d9d8d3" /><text x="235.5" y="298" text-anchor="middle" font-size="11" fill="#52514e">4m</text><line x1="318.2" y1="278" x2="318.2" y2="283" stroke="#d9d8d3" /><text x="318.2" y="298" text-anchor="middle" font-size="11" fill="#52514e">6m</text><line x1="401.0" y1="278" x2="401.0" y2="283" stroke="#d9d8d3" /><text x="401.0" y="298" text-anchor="middle" font-size="11" fill="#52514e">8m</text><line x1="483.7" y1="278" x2="483.7" y2="283" stroke="#d9d8d3" /><text x="483.7" y="298" text-anchor="middle" font-size="11" fill="#52514e">10m</text><line x1="566.4" y1="278" x2="566.4" y2="283" stroke="#d9d8d3" /><text x="566.4" y="298" text-anchor="middle" font-size="11" fill="#52514e">12m</text><line x1="649.2" y1="278" x2="649.2" y2="283" stroke="#d9d8d3" /><text x="649.2" y="298" text-anchor="middle" font-size="11" fill="#52514e">14m</text><line x1="731.9" y1="278" x2="731.9" y2="283" stroke="#d9d8d3" /><text x="731.9" y="298" text-anchor="middle" font-size="11" fill="#52514e">16m</text><line x1="814.6" y1="278" x2="814.6" y2="283" stroke="#d9d8d3" /><text x="814.6" y="298" text-anchor="middle" font-size="11" fill="#52514e">18m</text><line x1="897.4" y1="278" x2="897.4" y2="283" stroke="#d9d8d3" /><text x="897.4" y="298" text-anchor="middle" font-size="11" fill="#52514e">20m</text><line x1="980.1" y1="278" x2="980.1" y2="283" stroke="#d9d8d3" /><text x="980.1" y="298" text-anchor="middle" font-size="11" fill="#52514e">22m</text><line x1="1062.9" y1="278" x2="1062.9" y2="283" stroke="#d9d8d3" /><text x="1062.9" y="298" text-anchor="middle" font-size="11" fill="#52514e">24m</text><line x1="1145.6" y1="278" x2="1145.6" y2="283" stroke="#d9d8d3" /><text x="1145.6" y="298" text-anchor="middle" font-size="11" fill="#52514e">26m</text>

  <rect x="70" y="56" width="1100" height="222" fill="none" stroke="#d9d8d3"/>

  <text x="60" y="72" text-anchor="end" font-size="11" fill="#1baf7a" font-weight="600">up</text>
  <text x="60" y="272" text-anchor="end" font-size="11" fill="#e34948" font-weight="600">down</text>

  <text x="70" y="324" font-size="12" fill="#0b0b0b">
    <tspan font-weight="700">502</tspan><tspan fill="#52514e"> of 578 requests failed &#183; availability </tspan><tspan font-weight="700">13.1%</tspan>
  </text>
  <text x="1170" y="324" text-anchor="end" font-size="11" fill="#52514e">infra-a &#183; github.com/allaouiyounespro</text>
</svg>
